<?xml version="1.0" encoding="UTF-8"?>
<!DOCTYPE svg PUBLIC "-//W3C//DTD SVG 1.1//EN" "http://www.w3.org/Graphics/SVG/1.1/DTD/svg11.dtd">
<!-- Creator: CorelDRAW X8 -->
<svg xmlns="http://www.w3.org/2000/svg" xml:space="preserve" width="11.8532mm" height="5.08mm" version="1.1" style="shape-rendering:geometricPrecision; text-rendering:geometricPrecision; image-rendering:optimizeQuality; fill-rule:evenodd; clip-rule:evenodd"
viewBox="0 0 1185 508"
 xmlns:xlink="http://www.w3.org/1999/xlink">
 <defs>
  <style type="text/css">
   <![CDATA[
    .fil1 {fill:#222222;fill-rule:nonzero}
    .fil0 {fill:url(#id0)}
   ]]>
  </style>
  <linearGradient id="id0" gradientUnits="userSpaceOnUse" x1="260.67" y1="261.55" x2="489.51" y2="420.35">
   <stop offset="0" style="stop-opacity:1; stop-color:#00B9FA"/>
   <stop offset="1" style="stop-opacity:1; stop-color:#4344F8"/>
  </linearGradient>
 </defs>
 <g id="Preset_x0020_6">
  <metadata id="CorelCorpID_0Corel-Layer"/>
  <path class="fil0" d="M142 85c13,0 26,6 34,14 34,45 100,20 93,-37 0,-18 14,-33 32,-33 18,0 33,15 33,33 0,3 -1,7 -2,10 107,15 188,106 188,217 0,120 -98,218 -218,218 -111,0 -202,-81 -217,-188 -3,2 -7,2 -11,2 -18,0 -33,-14 -33,-32 0,-18 15,-33 33,-33 42,-3 64,-53 34,-84 -10,-10 -16,-22 -16,-37 0,-27 22,-50 50,-50zm52 73l128 0c78,13 103,131 7,164 31,30 62,60 93,90 -14,15 -59,24 -69,13l-99 -93c0,33 0,65 0,98 -23,0 -61,-23 -61,-50l0 -118c41,0 82,0 122,0 19,0 20,-43 0,-43l-67 0c-10,1 -58,-24 -54,-61zm-122 21c14,0 26,12 26,27 0,15 -12,27 -26,27 -15,0 -27,-12 -27,-27 0,-15 12,-27 27,-27zm147 -133c15,0 27,12 27,26 0,15 -12,27 -27,27 -15,0 -27,-12 -27,-27 0,-14 12,-26 27,-26zm-199 174c11,0 20,9 20,20 0,11 -9,20 -20,20 -11,0 -20,-9 -20,-20 0,-11 9,-20 20,-20zm40 -107c10,0 19,9 19,20 0,11 -9,20 -19,20 -11,0 -20,-9 -20,-20 0,-11 9,-20 20,-20zm89 -84c11,0 20,9 20,20 0,10 -9,19 -20,19 -11,0 -19,-9 -19,-19 0,-11 8,-20 19,-20zm98 -30c11,0 20,9 20,20 0,11 -9,20 -20,20 -11,0 -20,-9 -20,-20 0,-11 9,-20 20,-20zm-163 50c10,0 19,9 19,20 0,11 -9,20 -19,20 -11,0 -20,-9 -20,-20 0,-11 9,-20 20,-20z"/>
 </g>
 <g id="Text">
  <metadata id="CorelCorpID_1Corel-Layer"/>
  <path class="fil1" d="M663 367l-32 -57 -8 0 0 57 -37 0 0 -150 62 0c12,0 22,2 30,6 8,4 14,10 19,17 4,7 6,15 6,25 0,10 -3,20 -9,27 -6,8 -15,13 -26,16l35 59 -40 0zm-40 -81l22 0c7,0 12,-2 16,-5 3,-3 5,-8 5,-14 0,-6 -2,-11 -5,-14 -4,-4 -9,-5 -16,-5l-22 0 0 38zm160 -40l0 31 50 0 0 28 -50 0 0 33 56 0 0 29 -93 0 0 -150 93 0 0 29 -56 0zm210 -29l0 29 -41 0 0 121 -36 0 0 -121 -40 0 0 -29 117 0zm112 -2c14,0 27,3 38,10 12,6 21,15 27,27 7,12 10,25 10,39 0,15 -3,28 -10,40 -7,12 -16,21 -27,27 -12,7 -24,10 -38,10 -14,0 -27,-3 -39,-10 -11,-6 -20,-15 -27,-27 -7,-12 -10,-25 -10,-40 0,-14 3,-27 10,-39 7,-12 16,-21 27,-27 12,-7 25,-10 39,-10zm0 33c-12,0 -22,4 -29,12 -7,8 -10,18 -10,31 0,14 3,24 10,32 7,8 17,11 29,11 11,0 21,-3 28,-11 7,-8 10,-18 10,-32 0,-13 -3,-23 -10,-31 -7,-8 -16,-12 -28,-12z"/>
 </g>
</svg>
